<svg width="36" height="32" viewBox="0 0 36 32" fill="none" xmlns="http://www.w3.org/2000/svg">
<path d="M18 0H25C25.55 0 26 0.45 26 1V5C26 5.55 25.55 6 25 6H20.0438L25.6437 10H32C34.2062 10 36 11.7937 36 14V28C36 30.2062 34.2062 32 32 32H21V25C21 23.3438 19.6562 22 18 22C16.3438 22 15 23.3438 15 25V32H4C1.79375 32 0 30.2062 0 28V14C0 11.7937 1.79375 10 4 10H10.3562L16 5.96875V2C16 0.89375 16.8937 0 18 0ZM21 15C21 14.2044 20.6839 13.4413 20.1213 12.8787C19.5587 12.3161 18.7956 12 18 12C17.2044 12 16.4413 12.3161 15.8787 12.8787C15.3161 13.4413 15 14.2044 15 15C15 15.7956 15.3161 16.5587 15.8787 17.1213C16.4413 17.6839 17.2044 18 18 18C18.7956 18 19.5587 17.6839 20.1213 17.1213C20.6839 16.5587 21 15.7956 21 15ZM5 14C4.45 14 4 14.45 4 15V19C4 19.55 4.45 20 5 20H7C7.55 20 8 19.55 8 19V15C8 14.45 7.55 14 7 14H5ZM28 15V19C28 19.55 28.45 20 29 20H31C31.55 20 32 19.55 32 19V15C32 14.45 31.55 14 31 14H29C28.45 14 28 14.45 28 15ZM5 22C4.45 22 4 22.45 4 23V27C4 27.55 4.45 28 5 28H7C7.55 28 8 27.55 8 27V23C8 22.45 7.55 22 7 22H5ZM29 22C28.45 22 28 22.45 28 23V27C28 27.55 28.45 28 29 28H31C31.55 28 32 27.55 32 27V23C32 22.45 31.55 22 31 22H29Z" fill="#1E3050"/>
</svg>
