<svg width="24" height="32" viewBox="0 0 24 32" fill="none" xmlns="http://www.w3.org/2000/svg">
<path d="M3 0C1.34375 0 0 1.34375 0 3V29C0 30.6562 1.34375 32 3 32H9V27C9 25.3438 10.3438 24 12 24C13.6562 24 15 25.3438 15 27V32H21C22.6562 32 24 30.6562 24 29V3C24 1.34375 22.6562 0 21 0H3ZM4 15C4 14.45 4.45 14 5 14H7C7.55 14 8 14.45 8 15V17C8 17.55 7.55 18 7 18H5C4.45 18 4 17.55 4 17V15ZM11 14H13C13.55 14 14 14.45 14 15V17C14 17.55 13.55 18 13 18H11C10.45 18 10 17.55 10 17V15C10 14.45 10.45 14 11 14ZM16 15C16 14.45 16.45 14 17 14H19C19.55 14 20 14.45 20 15V17C20 17.55 19.55 18 19 18H17C16.45 18 16 17.55 16 17V15ZM5 6H7C7.55 6 8 6.45 8 7V9C8 9.55 7.55 10 7 10H5C4.45 10 4 9.55 4 9V7C4 6.45 4.45 6 5 6ZM10 7C10 6.45 10.45 6 11 6H13C13.55 6 14 6.45 14 7V9C14 9.55 13.55 10 13 10H11C10.45 10 10 9.55 10 9V7ZM17 6H19C19.55 6 20 6.45 20 7V9C20 9.55 19.55 10 19 10H17C16.45 10 16 9.55 16 9V7C16 6.45 16.45 6 17 6Z" fill="#1E3050"/>
</svg>
