<svg width="40" height="32" viewBox="0 0 40 32" fill="none" xmlns="http://www.w3.org/2000/svg">
<g clip-path="url(#clip0_6_28)">
<path d="M21.1125 0.3375C20.4375 -0.1125 19.5625 -0.1125 18.8875 0.3375L10.3938 6H3C1.34375 6 0 7.34375 0 9V29C0 30.6562 1.34375 32 3 32H16V26C16 23.7938 17.7938 22 20 22C22.2062 22 24 23.7938 24 26V32H37C38.6562 32 40 30.6562 40 29V9C40 7.34375 38.6562 6 37 6H29.6063L21.1125 0.3375ZM6 12H8C8.55 12 9 12.45 9 13V17C9 17.55 8.55 18 8 18H6C5.45 18 5 17.55 5 17V13C5 12.45 5.45 12 6 12ZM31 13C31 12.45 31.45 12 32 12H34C34.55 12 35 12.45 35 13V17C35 17.55 34.55 18 34 18H32C31.45 18 31 17.55 31 17V13ZM6 20H8C8.55 20 9 20.45 9 21V25C9 25.55 8.55 26 8 26H6C5.45 26 5 25.55 5 25V21C5 20.45 5.45 20 6 20ZM31 21C31 20.45 31.45 20 32 20H34C34.55 20 35 20.45 35 21V25C35 25.55 34.55 26 34 26H32C31.45 26 31 25.55 31 25V21ZM14.5 11C14.5 9.54131 15.0795 8.14236 16.1109 7.11091C17.1424 6.07946 18.5413 5.5 20 5.5C21.4587 5.5 22.8576 6.07946 23.8891 7.11091C24.9205 8.14236 25.5 9.54131 25.5 11C25.5 12.4587 24.9205 13.8576 23.8891 14.8891C22.8576 15.9205 21.4587 16.5 20 16.5C18.5413 16.5 17.1424 15.9205 16.1109 14.8891C15.0795 13.8576 14.5 12.4587 14.5 11ZM20 8C19.45 8 19 8.45 19 9V11C19 11.55 19.45 12 20 12H22C22.55 12 23 11.55 23 11C23 10.45 22.55 10 22 10H21V9C21 8.45 20.55 8 20 8Z" fill="#1E3050"/>
</g>
<defs>
<clipPath id="clip0_6_28">
<rect width="40" height="32" fill="white"/>
</clipPath>
</defs>
</svg>
