<svg width="38" height="32" viewBox="0 0 38 32" fill="none" xmlns="http://www.w3.org/2000/svg">
<path d="M10 6C10.7956 6 11.5587 5.68393 12.1213 5.12132C12.6839 4.55871 13 3.79565 13 3C13 2.20435 12.6839 1.44129 12.1213 0.87868C11.5587 0.31607 10.7956 0 10 0C9.20435 0 8.44129 0.31607 7.87868 0.87868C7.31607 1.44129 7 2.20435 7 3C7 3.79565 7.31607 4.55871 7.87868 5.12132C8.44129 5.68393 9.20435 6 10 6ZM9.5 30V22H10.5V30C10.5 31.1063 11.3938 32 12.5 32C13.6062 32 14.5 31.1063 14.5 30V12H18H22H23C24.1063 12 25 11.1062 25 10C25 8.89375 24.1063 8 23 8H22V4H34V16H22V14H18V17C18 18.6562 19.3438 20 21 20H35C36.6562 20 38 18.6562 38 17V3C38 1.34375 36.6562 0 35 0H21C19.3438 0 18 1.34375 18 3V8H13.1938H9.06875C6.9625 8 5.0125 9.10625 3.925 10.9125L0.28125 16.975C-0.2875 17.9188 0.0187504 19.15 0.9625 19.7188C1.90625 20.2875 3.1375 19.9813 3.70625 19.0375L5.5 16.0562V30C5.5 31.1063 6.39375 32 7.5 32C8.60625 32 9.5 31.1063 9.5 30Z" fill="#1E3050"/>
</svg>
